<?xml version="1.0" encoding="UTF-8"?>
<svg xmlns="http://www.w3.org/2000/svg" width="1024" height="1024" viewBox="0 0 1024 1024">
  <defs>
    <radialGradient id="bg" cx="50%" cy="45%" r="70%">
      <stop offset="0%" stop-color="#1b1b3a"/>
      <stop offset="100%" stop-color="#0e0e22"/>
    </radialGradient>
    <linearGradient id="ring" x1="0%" y1="0%" x2="100%" y2="100%">
      <stop offset="0%" stop-color="#00E5FF"/>
      <stop offset="100%" stop-color="#7CF1C8"/>
    </linearGradient>
    <linearGradient id="nexus" x1="0%" y1="0%" x2="100%" y2="100%">
      <stop offset="0%" stop-color="#B388FF"/>
      <stop offset="100%" stop-color="#6C5CE7"/>
    </linearGradient>
    <filter id="softGlow" x="-20%" y="-20%" width="140%" height="140%">
      <feGaussianBlur stdDeviation="6" result="blur"/>
      <feMerge>
        <feMergeNode in="blur"/>
        <feMergeNode in="SourceGraphic"/>
      </feMerge>
    </filter>
  </defs>

  <!-- Background -->
  <rect width="1024" height="1024" fill="url(#bg)"/>

  <!-- Portal ring -->
  <circle cx="512" cy="512" r="360" fill="none" stroke="url(#ring)" stroke-width="36" filter="url(#softGlow)"/>
  <circle cx="512" cy="512" r="300" fill="none" stroke="#0adad6" stroke-opacity="0.25" stroke-width="8" stroke-dasharray="2 18"/>

  <!-- Nexus 'N' built from linked nodes -->
  <!-- N backbone -->
  <path d="M330 700 L330 340 L690 700 L690 324" fill="none" stroke="url(#nexus)" stroke-linecap="round" stroke-linejoin="round" stroke-width="48" filter="url(#softGlow)"/>
  
  <!-- Chain nodes along the N -->
  <g fill="#FFFFFF">
    <circle cx="330" cy="700" r="22"/>
    <circle cx="330" cy="520" r="22"/>
    <circle cx="330" cy="340" r="22"/>

    <circle cx="510" cy="528" r="22"/>
    <circle cx="600" cy="614" r="22"/>

    <circle cx="690" cy="700" r="22"/>
    <circle cx="690" cy="512" r="22"/>
    <circle cx="690" cy="324" r="22"/>
  </g>

  <!-- subtle inner glow at center -->
  <circle cx="512" cy="512" r="120" fill="none" stroke="#00E5FF" stroke-opacity="0.25" stroke-width="10"/>
</svg>
